%FSTAX24Y24*%
%MOIN*%
%SFA1B1*%

%IPPOS*%
%ADD11C,0.010000*%
%ADD18R,0.031500X0.037400*%
%ADD23R,0.037400X0.031500*%
%ADD44R,0.059100X0.157500*%
%ADD51O,0.035400X0.059100*%
%ADD52C,0.063000*%
%ADD53R,0.063000X0.063000*%
%ADD54C,0.023600*%
%ADD55C,0.025600*%
%ADD56C,0.026000*%
%ADD57R,0.075000X0.017700*%
%ADD58R,0.017700X0.075000*%
%ADD59R,0.094500X0.059100*%
%LNv3-1*%
%LPD*%
G36*
X043962Y03952D02*
X044357D01*
Y03937*
X044507*
Y038483*
X044655*
Y016978*
X042798*
X042781Y017028*
X042805Y017046*
X04285Y017104*
X042878Y017172*
X042883Y017212*
X042607*
X042332*
X042337Y017172*
X042365Y017104*
X04241Y017046*
X042434Y017028*
X042417Y016978*
X039983*
X039966Y017028*
X03999Y017046*
X040035Y017104*
X040063Y017172*
X040068Y017212*
X039793*
X039517*
X039522Y017172*
X03955Y017104*
X039595Y017046*
X039619Y017028*
X039602Y016978*
X03408*
Y038483*
X034233*
Y03937*
X034383*
Y03952*
X034778*
Y040163*
X036088*
Y03952*
X036878*
Y040163*
X037925*
Y03952*
X038715*
Y040163*
X040025*
Y03952*
X040815*
Y040163*
X041862*
Y03952*
X042652*
Y040163*
X043962*
Y03952*
G37*
%LNv3-2*%
%LPC*%
G36*
X044207Y03922D02*
X043962D01*
Y038483*
X044207*
Y03922*
G37*
G36*
X042652D02*
X042407D01*
Y038483*
X042652*
Y03922*
G37*
G36*
X042107D02*
X041862D01*
Y038483*
X042107*
Y03922*
G37*
G36*
X040815D02*
X04057D01*
Y038483*
X040815*
Y03922*
G37*
G36*
X04027D02*
X040025D01*
Y038483*
X04027*
Y03922*
G37*
G36*
X038715D02*
X03847D01*
Y038483*
X038715*
Y03922*
G37*
G36*
X03817D02*
X037925D01*
Y038483*
X03817*
Y03922*
G37*
G36*
X036878D02*
X036633D01*
Y038483*
X036878*
Y03922*
G37*
G36*
X036333D02*
X036088D01*
Y038483*
X036333*
Y03922*
G37*
G36*
X034778D02*
X034533D01*
Y038483*
X034778*
Y03922*
G37*
G36*
X0441Y034578D02*
X044002Y034565D01*
X043911Y034528*
X043833Y034467*
X043772Y034389*
X043741Y034312*
X036007*
X034975*
Y034575*
X034225*
Y033825*
X034975*
Y034088*
X035671*
X035697Y034038*
X035696Y034036*
X035688Y033993*
X035653Y033962*
X035583*
Y033468*
X036017*
Y033962*
X035993*
X035973Y034008*
X036053Y034088*
X043741*
X043772Y034011*
X043833Y033933*
X043911Y033872*
X044002Y033835*
X0441Y033822*
X044198Y033835*
X044289Y033872*
X044367Y033933*
X044428Y034011*
X044465Y034102*
X044478Y0342*
X044465Y034298*
X044428Y034389*
X044367Y034467*
X044289Y034528*
X044198Y034565*
X0441Y034578*
G37*
G36*
X04425Y033587D02*
Y03335D01*
X044487*
X044462Y033409*
X044396Y033496*
X044309Y033562*
X04425Y033587*
G37*
G36*
X04395D02*
X043891Y033562D01*
X043804Y033496*
X043738Y033409*
X043713Y03335*
X04395*
Y033587*
G37*
G36*
X036017Y033332D02*
X035583D01*
Y033184*
X035471*
X035428Y033175*
X035392Y033151*
X034816Y032575*
X034225*
Y031825*
X034975*
Y032416*
X035518Y032959*
X035583*
Y032838*
X036017*
Y032959*
X036683*
Y032468*
X037117*
Y032531*
X037167Y032558*
X037183Y032547*
X037253Y032533*
X037322Y032547*
X037381Y032587*
X03742Y032645*
X037434Y032715*
X03742Y032784*
X037381Y032843*
X037322Y032883*
X037253Y032897*
X037183Y032883*
X037167Y032872*
X037117Y032899*
Y032959*
X037982*
X038728Y032214*
Y031785*
X038678Y031739*
X038676*
X038675*
X03864Y031775*
Y031962*
X038631Y032005*
X038607Y032042*
X038325Y032323*
X038289Y032348*
X038246Y032356*
X037144*
X037101Y032348*
X037078Y032332*
X036683*
Y031941*
X036552Y03181*
X03577*
X03576Y03186*
X035789Y031872*
X035867Y031933*
X035928Y032011*
X035965Y032102*
X035978Y0322*
X035965Y032298*
X035928Y032389*
X035867Y032467*
X035789Y032528*
X035698Y032565*
X0356Y032578*
X035502Y032565*
X035411Y032528*
X035333Y032467*
X035272Y032389*
X035235Y032298*
X035222Y0322*
X035235Y032102*
X035272Y032011*
X035333Y031933*
X035411Y031872*
X03544Y03186*
X03543Y03181*
X035098*
X035055Y031802*
X035019Y031777*
X034775Y031533*
X034698Y031565*
X0346Y031578*
X034502Y031565*
X034411Y031528*
X034333Y031467*
X034272Y031389*
X034235Y031298*
X034222Y0312*
X034235Y031102*
X034272Y031011*
X034333Y030933*
X034411Y030872*
X034502Y030835*
X0346Y030822*
X034698Y030835*
X034789Y030872*
X034867Y030933*
X034928Y031011*
X034965Y031102*
X034978Y0312*
X034965Y031298*
X034933Y031375*
X035145Y031586*
X03518*
X035225Y031575*
Y031536*
Y030825*
X035975*
Y031536*
Y031575*
X03602Y031586*
X036598*
X036641Y031595*
X036677Y031619*
X036897Y031838*
X037117*
Y032059*
X037191Y032132*
X037957*
X037972Y032082*
X037933Y032023*
X037919Y031954*
X037933Y031884*
X037972Y031825*
X037986Y031816*
X037997Y031748*
X03799Y031739*
X037749*
Y031416*
X036704*
X036661Y031408*
X036625Y031384*
X034775Y029533*
X034698Y029565*
X0346Y029578*
X034502Y029565*
X034411Y029528*
X034333Y029467*
X034272Y029389*
X034235Y029298*
X034222Y0292*
X034235Y029102*
X034272Y029011*
X034333Y028933*
X034411Y028872*
X034502Y028835*
X0346Y028822*
X034698Y028835*
X034789Y028872*
X034867Y028933*
X034928Y029011*
X034965Y029102*
X034978Y0292*
X034965Y029298*
X034933Y029375*
X035003Y029445*
X03505Y029426*
Y028808*
X034775Y028533*
X034698Y028565*
X0346Y028578*
X034502Y028565*
X034411Y028528*
X034333Y028467*
X034272Y028389*
X034235Y028298*
X034222Y0282*
X034235Y028102*
X034272Y028011*
X034333Y027933*
X034411Y027872*
X034502Y027835*
X0346Y027822*
X034698Y027835*
X034789Y027872*
X034867Y027933*
X034928Y028011*
X034965Y028102*
X034978Y0282*
X034965Y028298*
X034933Y028375*
X035241Y028682*
X035265Y028719*
X035274Y028762*
Y029454*
X035306Y029481*
X035352Y029461*
Y027863*
X034933Y027444*
X034883Y027447*
X034867Y027467*
X034789Y027528*
X034698Y027565*
X0346Y027578*
X034502Y027565*
X034411Y027528*
X034333Y027467*
X034272Y027389*
X034235Y027298*
X034222Y0272*
X034235Y027102*
X034272Y027011*
X034333Y026933*
X034411Y026872*
X034502Y026835*
X0346Y026822*
X034698Y026835*
X034789Y026872*
X034867Y026933*
X034928Y027011*
X034965Y027102*
X034974Y027168*
X035543Y027737*
X035567Y027773*
X035576Y027816*
Y028443*
X035635*
Y0287*
Y028957*
X035576*
Y029532*
X035996Y029953*
X036043Y029934*
Y029628*
X03615*
Y029915*
X0363*
Y030065*
X036557*
Y030173*
X03673*
X036765Y030138*
Y030086*
Y029844*
X036725*
Y029805*
X0372*
X037675*
Y029844*
X037635*
Y030086*
Y030119*
Y030169*
Y030434*
Y030451*
Y030749*
X036765*
Y030712*
X036336*
X036317Y030758*
X036751Y031192*
X037749*
Y030869*
X038014*
X038046*
X038096*
X038361*
X038379*
X038643*
X038691Y030865*
X038724*
X038961*
X038989*
X039037Y030869*
X039274*
X039306*
X039356*
X039589*
X039621*
X039671*
X039904*
X039936*
X039986*
X040251*
Y031192*
X042949*
X043767Y030375*
X043735Y030298*
X043722Y0302*
X043735Y030102*
X043772Y030011*
X043833Y029933*
X043911Y029872*
X044002Y029835*
X0441Y029822*
X044198Y029835*
X044289Y029872*
X044367Y029933*
X044428Y030011*
X044465Y030102*
X044478Y0302*
X044465Y030298*
X044428Y030389*
X044367Y030467*
X044289Y030528*
X044198Y030565*
X0441Y030578*
X044002Y030565*
X043925Y030533*
X043075Y031384*
X043039Y031408*
X042996Y031416*
X040251*
Y031739*
X03993*
X039912Y031789*
X040016Y031893*
X043249*
X043767Y031375*
X043735Y031298*
X043722Y0312*
X043735Y031102*
X043772Y031011*
X043833Y030933*
X043911Y030872*
X044002Y030835*
X0441Y030822*
X044198Y030835*
X044289Y030872*
X044367Y030933*
X044428Y031011*
X044465Y031102*
X044478Y0312*
X044465Y031298*
X044428Y031389*
X044367Y031467*
X044289Y031528*
X044198Y031565*
X0441Y031578*
X044002Y031565*
X043925Y031533*
X043374Y032084*
X043338Y032108*
X043295Y032117*
X039969*
X039926Y032108*
X03989Y032084*
X039708Y031902*
X039684Y031866*
X039675Y031823*
Y031775*
X03964Y031739*
X03962*
X039585Y031775*
Y032116*
X040039Y03257*
X043572*
X043767Y032375*
X043735Y032298*
X043722Y0322*
X043735Y032102*
X043772Y032011*
X043833Y031933*
X043911Y031872*
X044002Y031835*
X0441Y031822*
X044198Y031835*
X044289Y031872*
X044367Y031933*
X044428Y032011*
X044465Y032102*
X044478Y0322*
X044465Y032298*
X044428Y032389*
X044367Y032467*
X044289Y032528*
X044198Y032565*
X0441Y032578*
X044002Y032565*
X043925Y032533*
X043697Y032761*
X043661Y032786*
X043618Y032794*
X039992*
X039949Y032786*
X039913Y032761*
X039393Y032242*
X039369Y032205*
X03936Y032162*
Y032097*
X03931Y032082*
X039286Y032119*
X039227Y032158*
X039157Y032172*
X039088Y032158*
X039029Y032119*
X039002Y032078*
X038952Y032094*
Y03226*
X038944Y032303*
X038919Y032339*
X038108Y033151*
X038072Y033175*
X038029Y033184*
X036017*
Y033332*
G37*
G36*
X0346Y033578D02*
X034502Y033565D01*
X034411Y033528*
X034333Y033467*
X034272Y033389*
X034235Y033298*
X034222Y0332*
X034235Y033102*
X034272Y033011*
X034333Y032933*
X034411Y032872*
X034502Y032835*
X0346Y032822*
X034698Y032835*
X034789Y032872*
X034867Y032933*
X034928Y033011*
X034965Y033102*
X034978Y0332*
X034965Y033298*
X034928Y033389*
X034867Y033467*
X034789Y033528*
X034698Y033565*
X0346Y033578*
G37*
G36*
X044487Y03305D02*
X04425D01*
Y032813*
X044309Y032838*
X044396Y032904*
X044462Y032991*
X044487Y03305*
G37*
G36*
X04395D02*
X043713D01*
X043738Y032991*
X043804Y032904*
X043891Y032838*
X04395Y032813*
Y03305*
G37*
G36*
X0346Y030578D02*
X034502Y030565D01*
X034411Y030528*
X034333Y030467*
X034272Y030389*
X034235Y030298*
X034222Y0302*
X034235Y030102*
X034272Y030011*
X034333Y029933*
X034411Y029872*
X034502Y029835*
X0346Y029822*
X034698Y029835*
X034789Y029872*
X034867Y029933*
X034928Y030011*
X034965Y030102*
X034978Y0302*
X034965Y030298*
X034928Y030389*
X034867Y030467*
X034789Y030528*
X034698Y030565*
X0346Y030578*
G37*
G36*
X036557Y029765D02*
X03645D01*
Y029628*
X036557*
Y029765*
G37*
G36*
X041957D02*
X04185D01*
Y029628*
X041957*
Y029765*
G37*
G36*
X04155D02*
X041443D01*
Y029628*
X04155*
Y029765*
G37*
G36*
X041239Y030751D02*
X040369D01*
Y030486*
Y030454*
Y030404*
Y030161*
X040329*
Y030122*
X040804*
X041279*
Y030161*
X041323Y030175*
X041443*
Y030065*
X0417*
X041957*
Y030175*
X042636*
X043106Y029705*
X043085Y029655*
X042068*
Y029412*
X041917*
Y029532*
X041483*
Y029038*
X041525*
X041544Y028992*
X041377Y028825*
X041275*
X041239Y02886*
Y028911*
Y029154*
X041279*
Y029193*
X040804*
X040329*
Y029154*
X040285Y02914*
X03945*
X039431Y029186*
X03979Y029545*
X040285*
X040329Y029531*
Y029493*
X040804*
X041279*
Y029531*
X041239*
Y029784*
X041279*
Y029822*
X040804*
X040329*
Y029784*
X040285Y02977*
X039744*
X039701Y029761*
X039664Y029737*
X039035Y029107*
X03875Y028822*
X038612*
X038581Y028872*
X038591Y028923*
X038578Y028993*
X038538Y029052*
X038479Y029091*
X03841Y029105*
X03834Y029091*
X038281Y029052*
X038242Y028993*
X038228Y028923*
X03824Y028863*
X0382Y028822*
X03767*
X037635Y028858*
Y028909*
Y029142*
Y029174*
Y029224*
Y029467*
X037675*
Y029505*
X0372*
X036725*
Y029467*
X036681Y029452*
X036517*
Y029532*
X036083*
Y029038*
X036517*
Y029228*
X03673*
X036765Y029193*
Y029142*
Y028858*
X03673Y028822*
X036662*
Y028917*
X036168*
Y028483*
X036662*
Y028598*
X03673*
X036765Y028563*
Y028512*
Y028247*
X037088*
Y027895*
X035505Y026312*
X034959*
X034928Y026389*
X034867Y026467*
X034789Y026528*
X034698Y026565*
X0346Y026578*
X034502Y026565*
X034411Y026528*
X034333Y026467*
X034272Y026389*
X034235Y026298*
X034222Y0262*
X034235Y026102*
X034272Y026011*
X034333Y025933*
X034411Y025872*
X034502Y025835*
X0346Y025822*
X034698Y025835*
X034789Y025872*
X034867Y025933*
X034928Y026011*
X034959Y026088*
X035552*
X035595Y026096*
X035631Y026121*
X037279Y027769*
X037304Y027805*
X037312Y027848*
Y028247*
X037635*
Y028563*
X03767Y028598*
X038246*
X038797*
X038839Y028607*
X038876Y028631*
X03916Y028915*
X040334*
X040369Y02888*
Y028829*
Y028596*
Y028564*
Y028514*
Y028249*
X041239*
X041289Y028267*
X041483Y028074*
Y027768*
X041917*
Y027903*
X042068*
Y02737*
X043132*
Y02808*
X042403*
X04239Y028094*
X042353Y028119*
X04231Y028127*
X041917*
Y028262*
X041612*
X041397Y028477*
X04136Y028501*
X041317Y02851*
X041275*
X041239Y028545*
Y028565*
X041275Y0286*
X041423*
X041466Y028609*
X041503Y028633*
X041794Y028925*
X041819Y028961*
X041827Y029004*
X04186Y029038*
X041917*
Y029188*
X042068*
Y028945*
X043132*
Y029608*
X043182Y029629*
X043348Y029463*
Y02884*
X043357Y028797*
X043381Y02876*
X043767Y028375*
X043735Y028298*
X043722Y0282*
X043735Y028102*
X043772Y028011*
X043833Y027933*
X043911Y027872*
X044002Y027835*
X0441Y027822*
X044198Y027835*
X044289Y027872*
X044367Y027933*
X044428Y028011*
X044465Y028102*
X044478Y0282*
X044465Y028298*
X044428Y028389*
X044367Y028467*
X044289Y028528*
X044198Y028565*
X0441Y028578*
X044002Y028565*
X043925Y028533*
X043572Y028886*
Y029504*
X043586Y029515*
X04362Y029527*
X043768Y029379*
X043735Y029298*
X043722Y0292*
X043735Y029102*
X043772Y029011*
X043833Y028933*
X043911Y028872*
X044002Y028835*
X0441Y028822*
X044198Y028835*
X044289Y028872*
X044367Y028933*
X044428Y029011*
X044465Y029102*
X044478Y0292*
X044465Y029298*
X044428Y029389*
X044367Y029467*
X044289Y029528*
X044198Y029565*
X0441Y029578*
X044002Y029565*
X043929Y029535*
X042783Y030682*
X042746Y030706*
X042703Y030715*
X041239*
Y030751*
G37*
G36*
X036072Y028957D02*
X035935D01*
Y02885*
X036072*
Y028957*
G37*
G36*
Y02855D02*
X035935D01*
Y028443*
X036072*
Y02855*
G37*
G36*
X039951Y028135D02*
X039901D01*
X039669*
X039636*
X039586*
X039354*
X039321*
X039272*
X039039*
X039007*
X038957*
X038724*
X038692*
X038642*
X038409*
X038377*
X038327*
X038094*
X038062*
X038012*
X037747*
Y027265*
X037783*
Y027156*
X03594Y025312*
X034959*
X034928Y025389*
X034867Y025467*
X034789Y025528*
X034698Y025565*
X0346Y025578*
X034502Y025565*
X034411Y025528*
X034333Y025467*
X034272Y025389*
X034235Y025298*
X034222Y0252*
X034235Y025102*
X034272Y025011*
X034333Y024933*
X034411Y024872*
X034502Y024835*
X0346Y024822*
X034698Y024835*
X034789Y024872*
X034867Y024933*
X034928Y025011*
X034959Y025088*
X035986*
X036029Y025096*
X036065Y025121*
X037975Y02703*
X037999Y027066*
X038007Y027109*
Y02723*
X038043Y027265*
X038063*
X038098Y02723*
Y026789*
X035621Y024312*
X034959*
X034928Y024389*
X034867Y024467*
X034789Y024528*
X034698Y024565*
X0346Y024578*
X034502Y024565*
X034411Y024528*
X034333Y024467*
X034272Y024389*
X034235Y024298*
X034222Y0242*
X034235Y024102*
X034272Y024011*
X034333Y023933*
X034411Y023872*
X034502Y023835*
X0346Y023822*
X034698Y023835*
X034789Y023872*
X034867Y023933*
X034928Y024011*
X034959Y024088*
X035668*
X035711Y024096*
X035747Y024121*
X03829Y026663*
X038314Y0267*
X038322Y026743*
Y02723*
X038358Y027265*
X038378*
X038413Y02723*
Y026153*
X035572Y023312*
X034959*
X034928Y023389*
X034867Y023467*
X034789Y023528*
X034698Y023565*
X0346Y023578*
X034502Y023565*
X034411Y023528*
X034333Y023467*
X034272Y023389*
X034235Y023298*
X034222Y0232*
X034235Y023102*
X034272Y023011*
X034333Y022933*
X034411Y022872*
X034502Y022835*
X0346Y022822*
X034698Y022835*
X034789Y022872*
X034867Y022933*
X034928Y023011*
X034959Y023088*
X035619*
X035662Y023096*
X035698Y023121*
X038605Y026027*
X038629Y026064*
X038637Y026107*
Y02723*
X038673Y027265*
X038693*
X038728Y02723*
Y02638*
X038737Y026337*
X038761Y026301*
X041941Y023121*
X041977Y023096*
X04202Y023088*
X043725*
Y022825*
X044475*
Y023575*
X043725*
Y023312*
X042067*
X038952Y026427*
Y02723*
X038988Y027265*
X039008*
X039043Y02723*
Y026812*
X039051Y026769*
X039076Y026733*
X041688Y024121*
X041724Y024096*
X041767Y024088*
X043741*
X043772Y024011*
X043833Y023933*
X043911Y023872*
X044002Y023835*
X0441Y023822*
X044198Y023835*
X044289Y023872*
X044367Y023933*
X044428Y024011*
X044465Y024102*
X044478Y0242*
X044465Y024298*
X044428Y024389*
X044367Y024467*
X044289Y024528*
X044198Y024565*
X0441Y024578*
X044002Y024565*
X043911Y024528*
X043833Y024467*
X043772Y024389*
X043741Y024312*
X041813*
X039267Y026858*
Y02723*
X039303Y027265*
X039323*
X039358Y02723*
Y026983*
X039366Y02694*
X039391Y026904*
X041174Y025121*
X04121Y025096*
X041253Y025088*
X043741*
X043772Y025011*
X043833Y024933*
X043911Y024872*
X044002Y024835*
X0441Y024822*
X044198Y024835*
X044289Y024872*
X044367Y024933*
X044428Y025011*
X044465Y025102*
X044478Y0252*
X044465Y025298*
X044428Y025389*
X044367Y025467*
X044289Y025528*
X044198Y025565*
X0441Y025578*
X044002Y025565*
X043911Y025528*
X043833Y025467*
X043772Y025389*
X043741Y025312*
X0413*
X039582Y02703*
Y02723*
X039618Y027265*
X039638*
X039673Y02723*
Y027183*
X039681Y02714*
X039706Y027104*
X040689Y026121*
X040725Y026096*
X040768Y026088*
X043741*
X043772Y026011*
X043833Y025933*
X043911Y025872*
X044002Y025835*
X0441Y025822*
X044198Y025835*
X044289Y025872*
X044367Y025933*
X044428Y026011*
X044465Y026102*
X044478Y0262*
X044465Y026298*
X044428Y026389*
X044367Y026467*
X044289Y026528*
X044198Y026565*
X0441Y026578*
X044002Y026565*
X043911Y026528*
X043833Y026467*
X043772Y026389*
X043741Y026312*
X040815*
X039912Y027215*
X039933Y027265*
X039984*
X040249*
Y027588*
X040582*
X041193Y026977*
X041229Y026953*
X041272Y026944*
X043824*
X043833Y026933*
X043911Y026872*
X044002Y026835*
X0441Y026822*
X044198Y026835*
X044289Y026872*
X044367Y026933*
X044428Y027011*
X044465Y027102*
X044478Y0272*
X044465Y027298*
X044428Y027389*
X044367Y027467*
X044289Y027528*
X044198Y027565*
X0441Y027578*
X044002Y027565*
X043911Y027528*
X043833Y027467*
X043772Y027389*
X043735Y027298*
X043722Y0272*
X043694Y027169*
X041957*
Y027235*
X0417*
X041443*
Y027169*
X041318*
X040708Y027779*
X040671Y027804*
X040628Y027812*
X040249*
Y028135*
X039951*
G37*
G36*
X041957Y027672D02*
X04185D01*
Y027535*
X041957*
Y027672*
G37*
G36*
X04155D02*
X041443D01*
Y027535*
X04155*
Y027672*
G37*
G36*
X038703Y024432D02*
X038633Y024418D01*
X038574Y024379*
X038535Y02432*
X038521Y024251*
X038535Y024181*
X038574Y024122*
X03859Y024111*
Y02207*
X038544Y022051*
X038127Y022468*
X038131Y022487*
X038117Y022557*
X038078Y022616*
X038019Y022655*
X037949Y022669*
X03788Y022655*
X037821Y022616*
X037782Y022557*
X037768Y022487*
X037782Y022418*
X037821Y022359*
X03788Y02232*
X037949Y022306*
X037969Y02231*
X038623Y021655*
X039073Y021205*
Y020217*
X038938*
Y019783*
X039073*
Y019607*
X038634Y019168*
X035915*
X035287Y019796*
X035291Y019815*
X035277Y019884*
X035238Y019943*
X035179Y019983*
X035109Y019997*
X03504Y019983*
X034981Y019943*
X034942Y019884*
X034928Y019815*
X034942Y019745*
X034981Y019687*
X03504Y019647*
X035109Y019633*
X035129Y019637*
X035789Y018977*
Y018976*
X035826Y018952*
X035869Y018944*
X03868*
X038723Y018952*
X03876Y018976*
X039264Y019481*
X039289Y019518*
X039297Y019561*
Y019783*
X039432*
Y020217*
X039297*
Y021252*
X039289Y021295*
X039264Y021331*
X038815Y021781*
Y024111*
X038831Y024122*
X03887Y024181*
X038884Y024251*
X03887Y02432*
X038831Y024379*
X038772Y024418*
X038703Y024432*
G37*
G36*
X040997Y020608D02*
D01*
X040311*
X040268Y020599*
X040231Y020575*
X039874Y020217*
X039568*
Y019783*
X040062*
Y020088*
X040357Y020383*
X040951*
X04108Y020254*
X041076Y020235*
X04109Y020166*
X041129Y020107*
X041188Y020067*
X041257Y020053*
X041327Y020067*
X041386Y020107*
X041425Y020166*
X041439Y020235*
X041425Y020305*
X041386Y020363*
X041327Y020403*
X041257Y020417*
X041238Y020413*
X041076Y020575*
X04104Y020599*
X040997Y020608*
G37*
G36*
X038782Y020217D02*
X038288D01*
Y020112*
X038214*
X038203Y020128*
X038145Y020168*
X038075Y020182*
X038006Y020168*
X037947Y020128*
X037907Y020069*
X037893Y02*
X037907Y019931*
X037947Y019872*
X038006Y019832*
X038075Y019818*
X038145Y019832*
X038203Y019872*
X038214Y019888*
X038288*
Y019783*
X038782*
Y020217*
G37*
G36*
X040711Y020297D02*
X040642Y020283D01*
X040583Y020244*
X040543Y020185*
X040529Y020116*
X040533Y020096*
X040257Y019821*
X040233Y019784*
X040225Y019741*
Y018822*
X040233Y018779*
X040257Y018743*
X040524Y018476*
X040492Y018437*
X040481Y018445*
X040408Y018459*
X040334Y018445*
X040272Y018403*
X040231Y018341*
X040216Y018268*
X040231Y018194*
X040272Y018132*
X040334Y018091*
X040408Y018076*
X040481Y018091*
X040543Y018132*
X040585Y018194*
X040599Y018268*
X040585Y018341*
X040577Y018353*
X040616Y018384*
X041017Y017983*
X041013Y017964*
X041027Y017894*
X041067Y017835*
X041126Y017796*
X041195Y017782*
X041265Y017796*
X041323Y017835*
X041363Y017894*
X041377Y017964*
X041363Y018033*
X041323Y018092*
X041265Y018132*
X041195Y018145*
X041176Y018142*
X040449Y018869*
Y019169*
X040499Y019184*
X04053Y019138*
X040589Y019099*
X040658Y019085*
X040728Y019099*
X040787Y019138*
X040797Y019154*
X041781*
X041824Y019163*
X04186Y019187*
X04237Y019697*
X042389Y019693*
X042459Y019707*
X042517Y019747*
X042557Y019805*
X042571Y019875*
X042557Y019944*
X042517Y020003*
X042459Y020043*
X042389Y020057*
X04232Y020043*
X042261Y020003*
X042221Y019944*
X042207Y019875*
X042211Y019856*
X041734Y019379*
X040797*
X040787Y019395*
X040728Y019434*
X040658Y019448*
X040589Y019434*
X04053Y019395*
X040499Y019349*
X040449Y019364*
Y019695*
X040692Y019938*
X040711Y019934*
X040781Y019948*
X040839Y019987*
X040879Y020046*
X040893Y020116*
X040879Y020185*
X040839Y020244*
X040781Y020283*
X040711Y020297*
G37*
G36*
X042757Y019073D02*
Y01887D01*
X042883*
X042878Y018911*
X04285Y018978*
X042805Y019036*
X042757Y019073*
G37*
G36*
X039943D02*
Y01887D01*
X040068*
X040063Y018911*
X040035Y018978*
X03999Y019036*
X039943Y019073*
G37*
G36*
X039643D02*
X039595Y019036D01*
X03955Y018978*
X039522Y018911*
X039517Y01887*
X039643*
Y019073*
G37*
G36*
X042457D02*
X04241Y019036D01*
X042365Y018978*
X042337Y018911*
X042332Y01887*
X042457*
Y019073*
G37*
G36*
X042883Y01857D02*
X042757D01*
Y018368*
X042805Y018405*
X04285Y018463*
X042878Y01853*
X042883Y01857*
G37*
G36*
X040068D02*
X039943D01*
Y018368*
X03999Y018405*
X040035Y018463*
X040063Y01853*
X040068Y01857*
G37*
G36*
X039643D02*
X039517D01*
X039522Y01853*
X03955Y018463*
X039595Y018405*
X039643Y018368*
Y01857*
G37*
G36*
X042457D02*
X042332D01*
X042337Y01853*
X042365Y018463*
X04241Y018405*
X042457Y018368*
Y01857*
G37*
G36*
X041982Y018459D02*
X041909Y018445D01*
X041847Y018403*
X041805Y018341*
X041791Y018268*
X041805Y018194*
X041847Y018132*
X041909Y018091*
X041982Y018076*
X042056Y018091*
X042118Y018132*
X04216Y018194*
X042174Y018268*
X04216Y018341*
X042118Y018403*
X042056Y018445*
X041982Y018459*
G37*
G36*
X042757Y017714D02*
Y017512D01*
X042883*
X042878Y017552*
X04285Y01762*
X042805Y017678*
X042757Y017714*
G37*
G36*
X039943D02*
Y017512D01*
X040068*
X040063Y017552*
X040035Y01762*
X03999Y017678*
X039943Y017714*
G37*
G36*
X039643D02*
X039595Y017678D01*
X03955Y01762*
X039522Y017552*
X039517Y017512*
X039643*
Y017714*
G37*
G36*
X042457D02*
X04241Y017678D01*
X042365Y01762*
X042337Y017552*
X042332Y017512*
X042457*
Y017714*
G37*
%LNv3-3*%
%LPD*%
G54D11*
X036007Y0342D02*
X036762D01*
X0369Y032715D02*
X037253D01*
X0346Y0342D02*
X036007D01*
X0358Y033993D02*
X036007Y0342D01*
X0358Y033715D02*
Y033993D01*
X037144Y032244D02*
X038246D01*
X036598Y031698D02*
X037144Y032244D01*
X035098Y031698D02*
X036598D01*
X038703Y021734D02*
Y024251D01*
X035109Y019815D02*
X035869Y019056D01*
X03868*
X039185Y019561*
Y02*
X038075D02*
X038535D01*
X040997Y020496D02*
X041257Y020235D01*
X040311Y020496D02*
X040997D01*
X039815Y02D02*
X040311Y020496D01*
X040337Y018822D02*
X041195Y017964D01*
X040337Y018822D02*
Y019741D01*
X040711Y020116*
X041781Y019267D02*
X042389Y019875D01*
X040658Y019267D02*
X041781D01*
X043618Y032682D02*
X0441Y0322D01*
X043295Y032005D02*
X0441Y0312D01*
X042996Y031304D02*
X0441Y0302D01*
X040102Y031304D02*
X042996D01*
X040804Y030602D02*
X042703D01*
X0441Y029206*
Y0292D02*
Y029206D01*
X041715Y0293D02*
X0426D01*
X041423Y028713D02*
X041715Y029004D01*
X040804Y028713D02*
X041423D01*
X041715Y029004D02*
Y0293D01*
X04231Y028015D02*
X0426Y027725D01*
X0417Y028015D02*
X04231D01*
X041317Y028398D02*
X0417Y028015D01*
X040804Y028398D02*
X041317D01*
X04346Y02884D02*
Y02951D01*
X042683Y030287D02*
X04346Y02951D01*
Y02884D02*
X0441Y0282D01*
X040804Y030287D02*
X042683D01*
X0401Y0277D02*
X040628D01*
X041272Y027056*
X043956*
X0441Y0272*
X040768Y0262D02*
X0441D01*
X039785Y027183D02*
X040768Y0262D01*
X039785Y027183D02*
Y0277D01*
X041253Y0252D02*
X0441D01*
X03947Y026983D02*
X041253Y0252D01*
X03947Y026983D02*
Y0277D01*
X041767Y0242D02*
X0441D01*
X039155Y026812D02*
X041767Y0242D01*
X039155Y026812D02*
Y0277D01*
X04202Y0232D02*
X0441D01*
X03884Y02638D02*
X04202Y0232D01*
X03884Y02638D02*
Y0277D01*
X036425Y02871D02*
X0372D01*
X036415Y0287D02*
X036425Y02871D01*
X036355Y02934D02*
X0372D01*
X0363Y029285D02*
X036355Y02934D01*
X039787Y031823D02*
X039969Y032005D01*
X039787Y031304D02*
Y031823D01*
X039969Y032005D02*
X043295D01*
X039472Y031304D02*
Y032162D01*
X039992Y032682*
X043618*
X03884Y0313D02*
Y03226D01*
X0346Y0232D02*
X035619D01*
X038525Y026107*
Y0277*
X0346Y0242D02*
X035668D01*
X03821Y026743*
Y0277*
X0346Y0252D02*
X035986D01*
X037895Y027109*
Y0277*
X0346Y0262D02*
X035552D01*
X0372Y027848*
Y028395*
X0346Y0272D02*
X034847D01*
X035464Y027816*
X0346Y0282D02*
X035162Y028762D01*
X035464Y027816D02*
Y029579D01*
X03617Y030285*
X0372*
X035162Y028762D02*
Y029503D01*
X036259Y0306*
X0372*
X0346Y0292D02*
X036704Y031304D01*
X037898*
X038213D02*
Y031893D01*
X0346Y0322D02*
X035471Y033071D01*
X038029*
X03884Y03226*
X038152Y031954D02*
X038213Y031893D01*
X0381Y031954D02*
X038152D01*
X038528Y031304D02*
Y031962D01*
X038246Y032244D02*
X038528Y031962D01*
X0346Y0312D02*
X035098Y031698D01*
X036762Y0342D02*
X0441D01*
X039114Y029028D02*
X040804D01*
X038797Y02871D02*
X039114Y029028D01*
X039157Y031304D02*
Y03199D01*
X039185Y02D02*
Y021252D01*
X037949Y022487D02*
X038703Y021734D01*
X039185Y021252*
X03841Y028874D02*
Y028923D01*
X038246Y02871D02*
X03841Y028874D01*
X0372Y02871D02*
X038246D01*
X038797*
X039744Y029657D02*
X040804D01*
X039114Y029028D02*
X039744Y029657D01*
G54D18*
X0358Y033715D03*
Y033085D03*
X0369Y032085D03*
Y032715D03*
X0417Y029915D03*
Y029285D03*
Y027385D03*
Y028015D03*
X0363Y029285D03*
Y029915D03*
G54D23*
X036415Y0287D03*
X035785D03*
X038535Y02D03*
X039815D03*
X039185D03*
G54D44*
X042257Y03937D03*
X044357D03*
X03832D03*
X04042D03*
X034383D03*
X036483D03*
G54D51*
X042607Y017362D03*
X039793D03*
Y01872D03*
X042607D03*
G54D52*
X0346Y0302D03*
Y0232D03*
Y0242D03*
Y0252D03*
Y0262D03*
Y0272D03*
Y0282D03*
Y0292D03*
Y0312D03*
Y0332D03*
X0356Y0322D03*
X0441Y0342D03*
Y0332D03*
Y0322D03*
Y0312D03*
Y0302D03*
Y0292D03*
Y0282D03*
Y0272D03*
Y0262D03*
Y0252D03*
Y0242D03*
G54D53*
X0346Y0322D03*
Y0342D03*
X0356Y0312D03*
X0441Y0232D03*
G54D54*
X04425Y03825D03*
Y03675D03*
Y03525D03*
Y02175D03*
Y02025D03*
Y01875D03*
Y01725D03*
X043875Y0375D03*
X0435Y03675D03*
X043875Y036D03*
X0435Y03525D03*
Y03375D03*
Y03225D03*
Y02775D03*
Y02475D03*
X043875Y0225D03*
X0435Y02175D03*
X043875Y021D03*
X0435Y02025D03*
X043875Y0195D03*
X0435Y01875D03*
X043875Y018D03*
X0435Y01725D03*
X04275Y03675D03*
X043125Y036D03*
X04275Y03525D03*
X043125Y0345D03*
X04275Y03375D03*
X043125Y033D03*
X04275Y03225D03*
X043125Y0285D03*
Y0255D03*
X04275Y02475D03*
X043125Y0195D03*
Y018D03*
X042Y03825D03*
Y03675D03*
X042375Y036D03*
X042Y03525D03*
X042375Y0345D03*
X042Y03375D03*
X042375Y033D03*
X042Y03225D03*
X042375Y03D03*
Y0285D03*
X042Y02475D03*
X042375Y0195D03*
Y018D03*
X04125Y03975D03*
X041625Y039D03*
X04125Y03825D03*
Y03675D03*
X041625Y036D03*
X04125Y03525D03*
X041625Y0345D03*
X04125Y03375D03*
X041625Y033D03*
X04125Y03225D03*
X041625Y0285D03*
X04125Y02775D03*
X041625Y024D03*
X04125Y02325D03*
X0405Y03825D03*
Y03675D03*
X040875Y036D03*
X0405Y03525D03*
X040875Y0345D03*
X0405Y03375D03*
X040875Y033D03*
X0405Y03225D03*
X040875Y027D03*
X0405Y02325D03*
X040125Y033D03*
Y03D03*
Y0285D03*
Y0255D03*
Y018D03*
X039375Y033D03*
Y03D03*
X039Y02925D03*
X039375Y0285D03*
Y0255D03*
X039Y01725D03*
X03825Y03825D03*
X038625Y036D03*
X03825Y02925D03*
Y02625D03*
Y02475D03*
X038625Y0195D03*
X03825Y01875D03*
Y01725D03*
X0375Y03975D03*
Y03825D03*
X037875Y036D03*
X0375Y03525D03*
Y03375D03*
X037875Y03D03*
X0375Y02775D03*
Y02325D03*
X037125Y039D03*
X03675Y03825D03*
X037125Y0345D03*
X03675Y03375D03*
Y02775D03*
X037125Y027D03*
X03675Y02325D03*
Y01875D03*
X036375Y0345D03*
X036Y02775D03*
Y02625D03*
Y02325D03*
X036375Y0225D03*
X036Y02175D03*
X036375Y021D03*
X036Y02025D03*
X035625Y027D03*
X03525Y02475D03*
X035625Y0225D03*
X03525Y02175D03*
X035625Y021D03*
X03525Y02025D03*
Y01725D03*
X0345Y03825D03*
X034875Y0375D03*
X0345Y03675D03*
X034875Y0225D03*
X0345Y02175D03*
X034875Y021D03*
X0345Y02025D03*
Y01725D03*
X034956Y03991D03*
Y039574D03*
Y039237D03*
Y038901D03*
X03496Y038565D03*
X035096Y038258D03*
X035195Y037936D03*
X03538Y037656D03*
X03562Y037421D03*
X035902Y037238D03*
X036222Y037132D03*
X036557Y037104D03*
X036893D03*
X037229D03*
X037565D03*
X037902D03*
X038238D03*
X038574D03*
X03891D03*
X038585Y037809D03*
X038249D03*
X037913D03*
X037577D03*
X037241D03*
X036904D03*
X036568D03*
X036235Y037857D03*
X035966Y038059D03*
X035794Y038348D03*
X03591Y038663D03*
Y039D03*
Y039336D03*
Y039672D03*
Y040008D03*
X038893Y039923D03*
Y039587D03*
Y03925D03*
Y038914D03*
X038894Y038578D03*
X038951Y038247D03*
Y03791D03*
X039374Y037104D03*
X039656Y038051D03*
Y038387D03*
X039847Y038663D03*
Y039D03*
Y039336D03*
Y039672D03*
Y040008D03*
X04283Y039832D03*
Y039496D03*
Y039159D03*
Y038823D03*
X042861Y038488D03*
X042858Y038152D03*
X042612Y037923D03*
X042292Y037818D03*
X041956Y037816D03*
X04162D03*
X041284D03*
X040947D03*
X040611D03*
X040275D03*
X039939Y037811D03*
X039925Y037096D03*
X040261Y037111D03*
X040597D03*
X040933D03*
X04127D03*
X041606D03*
X041942D03*
X042278Y037112D03*
X042611Y037162D03*
X042921Y037291D03*
X043192Y037491D03*
X043426Y037732D03*
X043598Y03802D03*
X04366Y038351D03*
X043784Y038663D03*
Y039D03*
Y039336D03*
Y039672D03*
Y040008D03*
X037253Y032715D03*
X038703Y024251D03*
X041195Y017964D03*
X040711Y020116D03*
X035109Y019815D03*
X038075Y02D03*
X041257Y020235D03*
X042389Y019875D03*
X040658Y019267D03*
X0381Y031954D03*
X039157Y03199D03*
X037949Y022487D03*
X03841Y028923D03*
G54D55*
X040408Y018268D03*
X041982D03*
G54D56*
X040328Y022272D03*
X0408D03*
X041272D03*
Y0218D03*
Y021328D03*
X040328D03*
Y0218D03*
X0408Y021328D03*
Y0218D03*
G54D57*
X040804Y030602D03*
Y030287D03*
Y029972D03*
Y029657D03*
Y029343D03*
Y029028D03*
Y028713D03*
Y028398D03*
X0372Y0306D03*
Y030285D03*
Y02997D03*
Y029655D03*
Y02934D03*
Y029025D03*
Y02871D03*
Y028395D03*
G54D58*
X0401Y0277D03*
X039785D03*
X03947D03*
X039155D03*
X03884D03*
X038525D03*
X03821D03*
X037895D03*
X040102Y031304D03*
X039787D03*
X039472D03*
X039157D03*
X03884Y0313D03*
X038528Y031304D03*
X038213D03*
X037898D03*
G54D59*
X0426Y0293D03*
Y027725D03*
M02*