%FSTAX24Y24*%
%MOIN*%
%SFA1B1*%

%IPPOS*%
%AMD21*
4,1,8,-0.005900,-0.041400,0.005900,-0.041400,0.033500,-0.013800,0.033500,0.013800,0.005900,0.041400,-0.005900,0.041400,-0.033500,0.013800,-0.033500,-0.013800,-0.005900,-0.041400,0.0*
1,1,0.055200,-0.005900,-0.013800*
1,1,0.055200,0.005900,-0.013800*
1,1,0.055200,0.005900,0.013800*
1,1,0.055200,-0.005900,0.013800*
%
%AMD27*
4,1,8,-0.003000,-0.021500,0.003000,-0.021500,0.010000,-0.014500,0.010000,0.014500,0.003000,0.021500,-0.003000,0.021500,-0.010000,0.014500,-0.010000,-0.014500,-0.003000,-0.021500,0.0*
1,1,0.014000,-0.003000,-0.014500*
1,1,0.014000,0.003000,-0.014500*
1,1,0.014000,0.003000,0.014500*
1,1,0.014000,-0.003000,0.014500*
%
%AMD28*
4,1,8,-0.003000,-0.021500,0.003000,-0.021500,0.010000,-0.014500,0.010000,0.014500,0.003000,0.021500,-0.003000,0.021500,-0.010000,0.014500,-0.010000,-0.014500,-0.003000,-0.021500,0.0*
1,1,0.014000,-0.003000,-0.014500*
1,1,0.014000,0.003000,-0.014500*
1,1,0.014000,0.003000,0.014500*
1,1,0.014000,-0.003000,0.014500*
%
%ADD17R,0.055200X0.039500*%
%ADD18R,0.031500X0.037400*%
%ADD19R,0.023700X0.080800*%
%ADD20R,0.047400X0.082800*%
G04~CAMADD=21~8~0.0~0.0~671.0~828.0~276.0~0.0~15~0.0~0.0~0.0~0.0~0~0.0~0.0~0.0~0.0~0~0.0~0.0~0.0~180.0~670.0~827.0*
%ADD21D21*%
%ADD22R,0.067100X0.082800*%
%ADD23R,0.037400X0.031500*%
%ADD24R,0.047400X0.102500*%
%ADD25R,0.137900X0.102500*%
%ADD26R,0.067100X0.165500*%
G04~CAMADD=27~8~0.0~0.0~200.0~430.0~70.0~0.0~15~0.0~0.0~0.0~0.0~0~0.0~0.0~0.0~0.0~0~0.0~0.0~0.0~180.0~200.0~430.0*
%ADD27D27*%
G04~CAMADD=28~8~0.0~0.0~200.0~430.0~70.0~0.0~15~0.0~0.0~0.0~0.0~0~0.0~0.0~0.0~0.0~0~0.0~0.0~0.0~180.0~200.0~430.0*
%ADD28D28*%
%ADD29R,0.059200X0.051300*%
%ADD30R,0.037000X0.011400*%
%ADD31R,0.011400X0.037000*%
%ADD32R,0.134000X0.134000*%
%ADD33O,0.043400X0.067100*%
%ADD34C,0.071000*%
%ADD35R,0.071000X0.071000*%
%LNv3-1*%
%LPD*%
G54D17*
X038132Y025852D03*
X040888D03*
G54D18*
X0346Y019815D03*
Y019185D03*
X0389Y017985D03*
Y018615D03*
X0351D03*
Y017985D03*
X0346Y018615D03*
Y017985D03*
G54D19*
X040683Y018509D03*
X040939D03*
X041195D03*
X041451D03*
X041707D03*
G54D20*
X042307Y017362D03*
X040093D03*
G54D21*
X042529Y017362D03*
X039871D03*
G54D22*
X041589Y017362D03*
X040801D03*
G54D23*
X041887Y02D03*
X041257D03*
X041285Y0194D03*
X041915D03*
X038585Y0215D03*
X039215D03*
X038585Y022D03*
X039215D03*
X042385Y0208D03*
X043015D03*
X042385Y0202D03*
X043015D03*
X039825Y024752D03*
X039195D03*
X037085Y0248D03*
X037715D03*
Y0242D03*
X037085D03*
X042385Y0214D03*
X043015D03*
X042385Y022D03*
X043015D03*
X042385Y0225D03*
X043015D03*
X039195Y024252D03*
X039825D03*
X038115Y0215D03*
X037485D03*
X038115Y022D03*
X037485D03*
G54D24*
X035994Y017758D03*
X0369D03*
X037806D03*
G54D25*
X0369Y020042D03*
G54D26*
X043307Y03937D03*
X044357D03*
X042257D03*
X03937D03*
X04042D03*
X03832D03*
X035433D03*
X036483D03*
X034383D03*
G54D27*
X039106Y037455D03*
X039303D03*
X0395D03*
X039697D03*
X039894D03*
Y035745D03*
X039697D03*
X0395D03*
X039303D03*
G54D28*
X039106Y035745D03*
G54D29*
X039953Y034126D03*
Y034874D03*
X039047Y034126D03*
Y034874D03*
G54D30*
X039855Y022194D03*
Y021209D03*
Y0218D03*
Y021997D03*
Y021603D03*
Y021406D03*
Y022391D03*
X041745D03*
Y021406D03*
Y021603D03*
Y021997D03*
Y0218D03*
Y021209D03*
Y022194D03*
G54D31*
X0408Y022745D03*
X040603D03*
X040406D03*
X040209D03*
X040997D03*
X041194D03*
X041391D03*
Y020855D03*
X041194D03*
X040997D03*
X040209D03*
X040406D03*
X040603D03*
X0408D03*
G54D32*
X0408Y0218D03*
G54D33*
X042607Y017362D03*
X039793D03*
Y01872D03*
X042607D03*
G54D34*
X0346Y0302D03*
Y0232D03*
Y0242D03*
Y0252D03*
Y0262D03*
Y0272D03*
Y0282D03*
Y0292D03*
Y0312D03*
Y0332D03*
X0356Y0322D03*
X0441Y0342D03*
Y0332D03*
Y0322D03*
Y0312D03*
Y0302D03*
Y0292D03*
Y0282D03*
Y0272D03*
Y0262D03*
Y0252D03*
Y0242D03*
G54D35*
X0346Y0322D03*
Y0342D03*
X0356Y0312D03*
X0441Y0232D03*
M02*