%FSTAX24Y24*%
%MOIN*%
%SFA1B1*%

%IPPOS*%
%ADD18R,0.031500X0.037400*%
%ADD23R,0.037400X0.031500*%
%ADD26R,0.067100X0.165500*%
%ADD33O,0.043400X0.067100*%
%ADD34C,0.071000*%
%ADD35R,0.071000X0.071000*%
%ADD60R,0.083000X0.025700*%
%ADD61R,0.025700X0.083000*%
%ADD62R,0.102500X0.067100*%
%LNv3-1*%
%LPD*%
G54D18*
X0358Y033715D03*
Y033085D03*
X0369Y032085D03*
Y032715D03*
X0417Y029915D03*
Y029285D03*
Y027385D03*
Y028015D03*
X0363Y029285D03*
Y029915D03*
G54D23*
X036415Y0287D03*
X035785D03*
X038535Y02D03*
X039815D03*
X039185D03*
G54D26*
X042257Y03937D03*
X044357D03*
X03832D03*
X04042D03*
X034383D03*
X036483D03*
G54D33*
X042607Y017362D03*
X039793D03*
Y01872D03*
X042607D03*
G54D34*
X0346Y0302D03*
Y0232D03*
Y0242D03*
Y0252D03*
Y0262D03*
Y0272D03*
Y0282D03*
Y0292D03*
Y0312D03*
Y0332D03*
X0356Y0322D03*
X0441Y0342D03*
Y0332D03*
Y0322D03*
Y0312D03*
Y0302D03*
Y0292D03*
Y0282D03*
Y0272D03*
Y0262D03*
Y0252D03*
Y0242D03*
G54D35*
X0346Y0322D03*
Y0342D03*
X0356Y0312D03*
X0441Y0232D03*
G54D60*
X040804Y030602D03*
Y030287D03*
Y029972D03*
Y029657D03*
Y029343D03*
Y029028D03*
Y028713D03*
Y028398D03*
X0372Y0306D03*
Y030285D03*
Y02997D03*
Y029655D03*
Y02934D03*
Y029025D03*
Y02871D03*
Y028395D03*
G54D61*
X0401Y0277D03*
X039785D03*
X03947D03*
X039155D03*
X03884D03*
X038525D03*
X03821D03*
X037895D03*
X040102Y031304D03*
X039787D03*
X039472D03*
X039157D03*
X03884Y0313D03*
X038528Y031304D03*
X038213D03*
X037898D03*
G54D62*
X0426Y0293D03*
Y027725D03*
M02*