%FSTAX24Y24*%
%MOIN*%
%SFA1B1*%

%IPPOS*%
%ADD10C,0.008000*%
%ADD11C,0.010000*%
%ADD12C,0.002000*%
%ADD14C,0.007900*%
%ADD63C,0.009800*%
%ADD64C,0.001000*%
%LNv3-1*%
%LPD*%
G36*
X04153Y0308D02*
X04133Y0306D01*
X04153Y0304*
Y0308*
G37*
G54D10*
X042533Y02704D02*
X042467Y026973D01*
Y02684*
X042533Y026773*
X0426*
X042667Y02684*
X042733Y026773*
X0428*
X042867Y02684*
Y026973*
X0428Y02704*
X042733*
X042667Y026973*
X0426Y02704*
X042533*
X042667Y026973D02*
Y02684D01*
X042867Y02664D02*
X042467D01*
X0426Y026507*
X042467Y026374*
X042867*
X042467Y02624D02*
X042867D01*
X042667*
Y025974*
X042467*
X042867*
X0426Y02584D02*
Y025574D01*
X042867Y02584*
Y025574*
X041579Y026704D02*
X041512Y026771D01*
Y026904*
X041579Y026971*
X041846*
X041912Y026904*
Y026771*
X041846Y026704*
X041579Y026571D02*
X041512Y026504D01*
Y026371*
X041579Y026304*
X041646*
X041712Y026371*
Y026438*
Y026371*
X041779Y026304*
X041846*
X041912Y026371*
Y026504*
X041846Y026571*
X041554Y028707D02*
X041487Y028774D01*
Y028907*
X041554Y028974*
X041821*
X041887Y028907*
Y028774*
X041821Y028707*
X041887Y028374D02*
X041487D01*
X041687Y028574*
Y028308*
X035654Y02968D02*
X035587Y029747D01*
Y02988*
X035654Y029947*
X03592*
X035987Y02988*
Y029747*
X03592Y02968*
X035587Y029281D02*
Y029547D01*
X035787*
X03572Y029414*
Y029347*
X035787Y029281*
X03592*
X035987Y029347*
Y02948*
X03592Y029547*
X036163Y028328D02*
X03623Y028395D01*
X036363*
X03643Y028328*
Y028062*
X036363Y027995*
X03623*
X036163Y028062*
X035763Y028395D02*
X035897Y028328D01*
X03603Y028195*
Y028062*
X035963Y027995*
X03583*
X035763Y028062*
Y028128*
X03583Y028195*
X03603*
X03939Y020702D02*
X039456Y020769D01*
X03959*
X039656Y020702*
Y020635*
X03959Y020569*
X039456*
X03939Y020502*
Y020435*
X039456Y020369*
X03959*
X039656Y020435*
X039257Y020769D02*
Y020369D01*
X03899*
X038857D02*
X038723D01*
X03879*
Y020769*
X038857Y020702*
X03949Y0324D02*
Y032067D01*
X039423Y032*
X03929*
X039223Y032067*
Y0324*
X03909Y032333D02*
X039023Y0324D01*
X03889*
X038824Y032333*
Y032267*
X03889Y0322*
X038957*
X03889*
X038824Y032133*
Y032067*
X03889Y032*
X039023*
X03909Y032067*
G54D11*
X0421Y02965D02*
X04315D01*
Y0274D02*
Y02965D01*
X0421Y0274D02*
X04315D01*
X0421D02*
Y02965D01*
X037122Y034183D02*
X036722D01*
Y033983*
X036789Y033916*
X036922*
X036989Y033983*
Y034183*
Y034049D02*
X037122Y033916D01*
Y033783D02*
Y03365D01*
Y033716*
X036722*
X036789Y033783*
Y03345D02*
X036722Y033383D01*
Y03325*
X036789Y033183*
X037055*
X037122Y03325*
Y033383*
X037055Y03345*
X036789*
X036001Y034764D02*
X035601D01*
Y034564*
X035668Y034498*
X035801*
X035867Y034564*
Y034764*
Y034631D02*
X036001Y034498D01*
X035934Y034364D02*
X036001Y034298D01*
Y034164*
X035934Y034098*
X035668*
X035601Y034164*
Y034298*
X035668Y034364*
X035734*
X035801Y034298*
Y034098*
G54D12*
X035721Y0334D02*
X035879D01*
X0358Y033321D02*
Y033479D01*
X0369Y032321D02*
Y032479D01*
X036821Y0324D02*
X036979D01*
X041621Y0296D02*
X041779D01*
X0417Y029521D02*
Y029679D01*
X041621Y0277D02*
X041779D01*
X0417Y027621D02*
Y027779D01*
X036221Y0296D02*
X036379D01*
X0363Y029521D02*
Y029679D01*
X0361Y028621D02*
Y028779D01*
X036021Y0287D02*
X036179D01*
G54D14*
X037819Y028319D02*
X040181D01*
X037819Y030681D02*
X040181D01*
Y028319D02*
Y030681D01*
X037819Y028319D02*
Y030681D01*
G54D63*
X040654Y030907D02*
D01*
X040653Y03091*
X040653Y030913*
X040652Y030917*
X040652Y03092*
X040651Y030923*
X040649Y030926*
X040648Y03093*
X040646Y030932*
X040644Y030935*
X040642Y030938*
X04064Y030941*
X040637Y030943*
X040635Y030945*
X040632Y030947*
X040629Y030949*
X040626Y030951*
X040623Y030952*
X04062Y030953*
X040616Y030954*
X040613Y030955*
X04061Y030955*
X040606Y030955*
X040603*
X040599Y030955*
X040596Y030955*
X040593Y030954*
X040589Y030953*
X040586Y030952*
X040583Y030951*
X04058Y030949*
X040577Y030947*
X040574Y030945*
X040572Y030943*
X040569Y030941*
X040567Y030938*
X040565Y030935*
X040563Y030932*
X040561Y03093*
X04056Y030926*
X040558Y030923*
X040557Y03092*
X040557Y030917*
X040556Y030913*
X040556Y03091*
X040556Y030907*
X040556Y030903*
X040556Y0309*
X040557Y030896*
X040557Y030893*
X040558Y03089*
X04056Y030887*
X040561Y030883*
X040563Y030881*
X040565Y030878*
X040567Y030875*
X040569Y030872*
X040572Y03087*
X040574Y030868*
X040577Y030866*
X04058Y030864*
X040583Y030862*
X040586Y030861*
X040589Y03086*
X040593Y030859*
X040596Y030858*
X040599Y030858*
X040603Y030858*
X040606*
X04061Y030858*
X040613Y030858*
X040616Y030859*
X04062Y03086*
X040623Y030861*
X040626Y030862*
X040629Y030864*
X040632Y030866*
X040635Y030868*
X040637Y03087*
X04064Y030872*
X040642Y030875*
X040644Y030878*
X040646Y030881*
X040648Y030883*
X040649Y030887*
X040651Y03089*
X040652Y030893*
X040652Y030896*
X040653Y0309*
X040653Y030903*
X040654Y030907*
G54D64*
X03885Y019921D02*
Y020079D01*
X038771Y02D02*
X038929D01*
X0395Y019921D02*
Y020079D01*
X039421Y02D02*
X039579D01*
M02*